<?xml version="1.0" encoding="UTF-8"?>
<!DOCTYPE svg PUBLIC "-//W3C//DTD SVG 1.1//EN" "http://www.w3.org/Graphics/SVG/1.1/DTD/svg11.dtd">
<!-- Creator: CorelDRAW -->
<svg xmlns="http://www.w3.org/2000/svg" xml:space="preserve" width="210mm" height="297mm" version="1.1" style="shape-rendering:geometricPrecision; text-rendering:geometricPrecision; image-rendering:optimizeQuality; fill-rule:evenodd; clip-rule:evenodd"
viewBox="0 0 21000 29700"
 xmlns:xlink="http://www.w3.org/1999/xlink">
 <defs>
  <style type="text/css">
   <![CDATA[
    .fil0 {fill:none}
    .fil3 {fill:#00AEEE}
    .fil2 {fill:#ED1C24}
    .fil4 {fill:#FEF101}
    .fil1 {fill:#FFF200}
   ]]>
  </style>
 </defs>
 <g id="Layer_x0020_1">
  <metadata id="CorelCorpID_0Corel-Layer"/>
  <g id="PLN_x0020__x0028_Perusahaan_x0020_Listrik_x0020_Negara_x0029_.cdr">
   <polygon class="fil0" points="5081,11802 15919,11802 15919,17898 5081,17898 "/>
   <g id="_2233584415728">
    <polygon class="fil1" points="3881,18420 17119,18420 17119,5178 3881,5178 "/>
    <path class="fil2" d="M8730 9858l-261 828 -326 1046 -262 832 -310 986 1407 -610 2148 -941 -124 612 -235 1187 -171 849 -464 2348c165,-363 312,-767 462,-1143 52,-129 432,-1110 463,-1143 7,-56 253,-666 293,-748l420 -1044 342 -861 528 -1334 239 -614 -1452 584 -2054 827 355 -822 455 -1040c13,-66 240,-570 285,-678 83,-194 845,-1934 872,-2032l-1676 0c-43,28 -54,125 -70,174l-864 2737 0 0z"/>
    <polygon class="fil3" points="13380,20432 13380,24522 14386,24522 14386,22160 16015,24522 17119,24522 17119,20432 16113,20432 16113,22903 14375,20432 "/>
    <path class="fil3" d="M5663 22400l-776 0 0 -1093 852 0c575,0 622,1093 -76,1093l0 0zm-1782 2122l1005 0 0 -1258 1017 0c1709,0 1770,-2832 -54,-2832l-1968 0 0 4090 0 0z"/>
    <polygon class="fil3" points="8745,20432 8745,24522 11708,24522 11708,23658 9751,23658 9751,20432 "/>
    <path class="fil3" d="M10596 14647l172 -849c-731,-103 -1248,321 -1628,336 -423,15 -687,-458 -1608,-330 -351,49 -714,182 -980,332l0 891c50,-15 147,-82 209,-112 72,-34 149,-71 227,-102 155,-62 322,-116 500,-146 487,-81 693,30 1043,217 332,177 690,203 1055,47 501,-214 405,-240 1011,-284l-1 0z"/>
    <path class="fil3" d="M10183 9657l-455 1040c96,-28 198,-99 384,-150 747,-203 1253,144 1315,145l1452 -585 -239 615c139,-37 326,-308 958,-218 299,43 523,141 763,298 31,21 58,45 88,62 9,-255 0,-520 1,-776 1,-125 27,-115 -155,-226 -74,-46 -179,-93 -269,-124 -369,-127 -986,-183 -1329,5 -189,103 -278,211 -552,227 -238,15 -462,-45 -659,-119 -502,-190 -697,-272 -1304,-194l1 0z"/>
    <path class="fil3" d="M11350 13962c-40,81 -286,691 -293,748 302,84 490,265 826,310 895,119 827,-528 1803,-339 480,93 652,296 765,347l-1 -897c-196,-144 -382,-243 -687,-304 -266,-53 -642,-66 -897,10 -277,82 -375,269 -699,294 -305,23 -573,-74 -817,-170l0 1z"/>
    <path class="fil3" d="M12112 12056l-342 861c266,52 509,50 750,-49 207,-84 334,-223 588,-276 247,-51 537,-15 764,55 110,34 214,76 310,127 114,62 229,150 269,171l0 -893c-76,-86 -348,-212 -502,-258 -210,-61 -433,-91 -667,-89 -228,2 -450,42 -617,138 -227,132 -231,174 -553,213l0 0z"/>
    <path class="fil3" d="M8469 10686l261 -828c-394,-178 -651,-278 -1137,-223 -343,40 -785,183 -1039,338l-2 889c62,-16 412,-264 900,-351 466,-83 672,-6 1017,175z"/>
    <path class="fil3" d="M7881 12564l262 -832c-296,-53 -610,-23 -887,48 -205,52 -562,176 -704,277l0 889c37,-14 90,-49 128,-69 49,-27 91,-50 144,-74 347,-160 656,-250 1056,-238l1 -1z"/>
    <path class="fil4" d="M9728 10697l-355 822 2054 -827c-62,-1 -568,-348 -1315,-145 -186,51 -289,122 -384,150z"/>
    <path class="fil3" d="M8978 12941c347,71 693,-139 950,-248 364,-155 671,-139 1074,-82l124 -612 -2148 942 0 0z"/>
   </g>
  </g>
 </g>
</svg>
